<?xml version="1.0" encoding="UTF-8" standalone="no"?>
<svg
   xmlns:dc="http://purl.org/dc/elements/1.1/"
   xmlns:cc="http://creativecommons.org/ns#"
   xmlns:rdf="http://www.w3.org/1999/02/22-rdf-syntax-ns#"
   xmlns:svg="http://www.w3.org/2000/svg"
   xmlns="http://www.w3.org/2000/svg"
   xmlns:sodipodi="http://sodipodi.sourceforge.net/DTD/sodipodi-0.dtd"
   xmlns:inkscape="http://www.inkscape.org/namespaces/inkscape"
   inkscape:export-ydpi="96"
   inkscape:export-xdpi="96"
   inkscape:export-filename="C:\Users\cfikes\Projects\GIT\DocCam-Chrome\icon-64.png"
   inkscape:version="1.0 (4035a4fb49, 2020-05-01)"
   height="512"
   width="512"
   sodipodi:docname="iconSQ.svg"
   version="1.1"
   viewBox="0 0 512.00001 512"
   data-name="Layer 1"
   id="Layer_1">
  <metadata
     id="metadata27">
    <rdf:RDF>
      <cc:Work
         rdf:about="">
        <dc:format>image/svg+xml</dc:format>
        <dc:type
           rdf:resource="http://purl.org/dc/dcmitype/StillImage" />
        <dc:title>document-and-pen-2-flat</dc:title>
      </cc:Work>
    </rdf:RDF>
  </metadata>
  <sodipodi:namedview
     inkscape:current-layer="Layer_1"
     inkscape:window-maximized="1"
     inkscape:window-y="-6"
     inkscape:window-x="-6"
     inkscape:cy="259.69185"
     inkscape:cx="50.840514"
     inkscape:zoom="0.625"
     fit-margin-bottom="0"
     fit-margin-right="0"
     fit-margin-left="0"
     fit-margin-top="0"
     showgrid="false"
     id="namedview25"
     inkscape:window-height="850"
     inkscape:window-width="1368"
     inkscape:pageshadow="2"
     inkscape:pageopacity="0"
     guidetolerance="10"
     gridtolerance="10"
     objecttolerance="10"
     borderopacity="1"
     bordercolor="#666666"
     pagecolor="#ffffff" />
  <defs
     id="defs4">
    <style
       id="style2">.cls-1{fill:#dde5e8;}.cls-2{fill:#9bbdc6;}.cls-3{fill:#afc3c9;}.cls-4{fill:#ef4848;}.cls-5{fill:#e8a52d;}</style>
  </defs>
  <title
     id="title6">document-and-pen-2-flat</title>
  <path
     id="path8"
     d="M 438.4,153.6 V 448 a 64,64 0 0 1 -64,64 H 144 A 64,64 0 0 1 80,448 V 64 A 64,64 0 0 1 144,0 h 140.8 z"
     class="cls-1" />
  <path
     id="path10"
     d="m 438.4,153.6 h -89.6 a 64,64 0 0 1 -64,-64 V 0 Z"
     class="cls-2" />
  <path
     id="path16"
     d="M 284.8,256 A 12.8,12.8 0 0 1 272,268.8 H 195.2 A 12.8,12.8 0 0 1 182.4,256 v 0 a 12.8,12.8 0 0 1 12.8,-12.8 H 272 a 12.8,12.8 0 0 1 12.8,12.8 z"
     class="cls-3" />
  <path
     id="path18"
     d="M 336,307.2 A 12.8,12.8 0 0 1 323.2,320 h -128 a 12.8,12.8 0 0 1 -12.8,-12.8 v 0 a 12.8,12.8 0 0 1 12.8,-12.8 h 128 a 12.8,12.8 0 0 1 12.8,12.8 z"
     class="cls-3" />
  <path
     id="path20"
     d="m 335.62,358.4 a 12.8,12.8 0 0 1 -12.8,12.8 H 195.2 a 12.8,12.8 0 0 1 -12.8,-12.8 v 0 a 12.8,12.8 0 0 1 12.8,-12.8 h 127.62 a 12.8,12.8 0 0 1 12.8,12.8 z"
     class="cls-3" />
  <g
     transform="rotate(43.024193,429.10071,157.40946)"
     id="g855">
    <path
       class="cls-3"
       d="M 448,499.2 A 12.8,12.8 0 0 1 435.2,512 v 0 a 12.81,12.81 0 0 1 -12.8,-12.8 v -25.61 a 12.81,12.81 0 0 1 12.8,-12.8 v 0 A 12.8,12.8 0 0 1 448,473.6 Z"
       id="path12" />
    <path
       class="cls-4"
       d="M 512,230.4 A 12.8,12.8 0 0 0 499.2,217.6 H 473.6 V 192 a 38.4,38.4 0 0 0 -76.8,0 v 51.19 h 89.6 v 25.6 a 12.8,12.8 0 0 0 25.6,0 z"
       id="path14" />
    <path
       class="cls-5"
       d="M 396.8,243.2 V 448 a 38.4,38.4 0 1 0 76.8,0 V 243.2 Z"
       id="path22" />
  </g>
</svg>
